<mxfile host="app.diagrams.net" modified="2024-03-06T06:06:36.382Z" agent="Mozilla/5.0 (Windows NT 10.0; Win64; x64) AppleWebKit/537.36 (KHTML, like Gecko) Chrome/122.0.0.0 Safari/537.36 Edg/122.0.0.0" version="24.0.1" etag="6c9mU9yiHGCdmUUK99Dq" type="github">
  <diagram name="PÃ¡gina-1" id="E1ZDchr7Q7oIw_f-Cfia">
    <mxGraphModel>
      <root>
        <mxCell id="0" />
        <mxCell id="1" parent="0" />
      </root>
    </mxGraphModel>
  </diagram>
</mxfile>
